<?xml version="1.0" encoding="utf-8"?>
<svg width="24.923077px" height="24.923096px" viewBox="0 0 24.923077 24.923096" version="1.1" xmlns:xlink="http://www.w3.org/1999/xlink" xmlns="http://www.w3.org/2000/svg">
  <g id="Group-9" transform="translate(0.4615383 0.46154785)">
    <path d="M0 0L24 0L24 24L0 24L0 0Z" id="Rectangle" fill="none" fill-rule="evenodd" stroke="none" />
    <g id="Group-7" transform="translate(3.6923077 3.6923077)">
      <g id="Group-8">
        <path d="M0.922077 0L4.61638 0Q4.7072 0 4.79627 0.0177174Q4.88534 0.0354349 4.96925 0.0701889Q5.05315 0.104943 5.12866 0.155398Q5.20417 0.205853 5.26839 0.27007Q5.33261 0.334287 5.38306 0.409798Q5.43352 0.48531 5.46827 0.569213Q5.50303 0.653117 5.52074 0.742189Q5.53846 0.83126 5.53846 0.922077L5.53846 7.38562Q5.53846 7.47643 5.52074 7.5655Q5.50303 7.65457 5.46827 7.73848Q5.43352 7.82238 5.38306 7.89789Q5.33261 7.9734 5.26839 8.03762Q5.20417 8.10184 5.12866 8.15229Q5.05315 8.20275 4.96925 8.2375Q4.88534 8.27226 4.79627 8.28997Q4.7072 8.30769 4.61638 8.30769L0.922077 8.30769Q0.83126 8.30769 0.742189 8.28997Q0.653117 8.27226 0.569213 8.2375Q0.48531 8.20275 0.409798 8.15229Q0.334287 8.10184 0.27007 8.03762Q0.205853 7.9734 0.155398 7.89789Q0.104943 7.82238 0.0701889 7.73848Q0.0354349 7.65457 0.0177174 7.5655Q7.10543e-15 7.47643 7.10543e-15 7.38562L7.10543e-15 0.922077Q7.10543e-15 0.83126 0.0177174 0.742189Q0.0354349 0.653117 0.0701889 0.569213Q0.104943 0.48531 0.155398 0.409798Q0.205853 0.334287 0.27007 0.27007Q0.334287 0.205853 0.409798 0.155398Q0.48531 0.104943 0.569213 0.0701889Q0.653117 0.0354349 0.742189 0.0177174Q0.83126 0 0.922077 0L0.922077 0Z" id="Rectangle" fill="#0080FF" fill-rule="evenodd" stroke="none" />
        <path d="M9.22977 0L15.6933 0Q15.7841 0 15.8732 0.0177174Q15.9623 0.0354349 16.0462 0.0701889Q16.1301 0.104943 16.2056 0.155398Q16.2811 0.205853 16.3453 0.27007Q16.4095 0.334287 16.46 0.409798Q16.5104 0.48531 16.5452 0.569213Q16.5799 0.653117 16.5977 0.742189Q16.6154 0.83126 16.6154 0.922077L16.6154 7.38562Q16.6154 7.47643 16.5977 7.5655Q16.5799 7.65457 16.5452 7.73848Q16.5104 7.82238 16.46 7.89789Q16.4095 7.9734 16.3453 8.03762Q16.2811 8.10184 16.2056 8.15229Q16.1301 8.20275 16.0462 8.2375Q15.9623 8.27226 15.8732 8.28997Q15.7841 8.30769 15.6933 8.30769L9.22977 8.30769Q9.13895 8.30769 9.04988 8.28997Q8.96081 8.27226 8.8769 8.2375Q8.793 8.20275 8.71749 8.15229Q8.64198 8.10184 8.57776 8.03762Q8.51354 7.9734 8.46309 7.89789Q8.41263 7.82238 8.37788 7.73848Q8.34313 7.65457 8.32541 7.5655Q8.30769 7.47643 8.30769 7.38562L8.30769 0.922077Q8.30769 0.83126 8.32541 0.742189Q8.34313 0.653117 8.37788 0.569213Q8.41263 0.48531 8.46309 0.409798Q8.51354 0.334287 8.57776 0.27007Q8.64198 0.205853 8.71749 0.155398Q8.793 0.104943 8.8769 0.0701889Q8.96081 0.0354349 9.04988 0.0177174Q9.13895 0 9.22977 0Z" id="Rectangle" fill="#0080FF" fill-rule="evenodd" stroke="none" />
        <path d="M15.6933 11.0769L11.999 11.0769Q11.9082 11.0769 11.8191 11.0946Q11.73 11.1124 11.6461 11.1471Q11.5622 11.1819 11.4867 11.2323Q11.4112 11.2828 11.347 11.347Q11.2828 11.4112 11.2323 11.4867Q11.1819 11.5622 11.1471 11.6461Q11.1124 11.73 11.0946 11.8191Q11.0769 11.9082 11.0769 11.999L11.0769 15.6933Q11.0769 15.7841 11.0946 15.8732Q11.1124 15.9623 11.1471 16.0462Q11.1819 16.1301 11.2323 16.2056Q11.2828 16.2811 11.347 16.3453Q11.4112 16.4095 11.4867 16.46Q11.5622 16.5104 11.6461 16.5452Q11.73 16.5799 11.8191 16.5977Q11.9082 16.6154 11.999 16.6154L15.6933 16.6154Q15.7841 16.6154 15.8732 16.5977Q15.9623 16.5799 16.0462 16.5452Q16.1301 16.5104 16.2056 16.46Q16.2811 16.4095 16.3453 16.3453Q16.4095 16.2811 16.46 16.2056Q16.5104 16.1301 16.5452 16.0462Q16.5799 15.9623 16.5977 15.8732Q16.6154 15.7841 16.6154 15.6933L16.6154 11.999Q16.6154 11.9082 16.5977 11.8191Q16.5799 11.73 16.5452 11.6461Q16.5104 11.5622 16.46 11.4867Q16.4095 11.4112 16.3453 11.347Q16.2811 11.2828 16.2056 11.2323Q16.1301 11.1819 16.0462 11.1471Q15.9623 11.1124 15.8732 11.0946Q15.7841 11.0769 15.6933 11.0769Z" id="Rectangle" fill="#0080FF" fill-rule="evenodd" stroke="none" />
        <path d="M7.38562 11.0769L0.922077 11.0769Q0.83126 11.0769 0.742189 11.0946Q0.653117 11.1124 0.569213 11.1471Q0.48531 11.1819 0.409799 11.2323Q0.334287 11.2828 0.27007 11.347Q0.205853 11.4112 0.155398 11.4867Q0.104943 11.5622 0.0701889 11.6461Q0.0354349 11.73 0.0177175 11.8191Q0 11.9082 0 11.999L0 15.6933Q0 15.7841 0.0177175 15.8732Q0.0354349 15.9623 0.0701889 16.0462Q0.104943 16.1301 0.155398 16.2056Q0.205853 16.2811 0.27007 16.3453Q0.334287 16.4095 0.409799 16.46Q0.48531 16.5104 0.569213 16.5452Q0.653117 16.5799 0.742189 16.5977Q0.83126 16.6154 0.922077 16.6154L7.38562 16.6154Q7.47643 16.6154 7.5655 16.5977Q7.65457 16.5799 7.73848 16.5452Q7.82238 16.5104 7.89789 16.46Q7.9734 16.4095 8.03762 16.3453Q8.10184 16.2811 8.15229 16.2056Q8.20275 16.1301 8.2375 16.0462Q8.27226 15.9623 8.28997 15.8732Q8.30769 15.7841 8.30769 15.6933L8.30769 11.999Q8.30769 11.9082 8.28997 11.8191Q8.27226 11.73 8.2375 11.6461Q8.20275 11.5622 8.15229 11.4867Q8.10184 11.4112 8.03762 11.347Q7.9734 11.2828 7.89789 11.2323Q7.82238 11.1819 7.73848 11.1471Q7.65457 11.1124 7.5655 11.0946Q7.47643 11.0769 7.38562 11.0769L7.38562 11.0769Z" id="Rectangle" fill="#0080FF" fill-rule="evenodd" stroke="none" />
      </g>
    </g>
  </g>
</svg>