<?xml version="1.0" encoding="utf-8"?>
<svg width="151.25px" height="27px" viewBox="0 0 151.25 27" version="1.1" xmlns:xlink="http://www.w3.org/1999/xlink" xmlns="http://www.w3.org/2000/svg">
  <g id="Group-33" transform="translate(30 29)">
    <g id="Group-33">
      <g id="SaaSdunk." transform="translate(32 0)">
        <g id="SaaS" fill="#0080FF">
          <path d="M9.16797 8.95703Q9.78125 9.4375 9.85938 10.2969L13.5625 10.2969Q13.5469 8.79688 12.7891 7.66797Q12.0312 6.53906 10.6602 5.91016Q9.28906 5.28125 7.42969 5.28125Q5.60156 5.28125 4.18359 5.90234Q2.76563 6.52344 1.96094 7.64063Q1.15625 8.75781 1.16406 10.25Q1.15625 12.0703 2.35547 13.1367Q3.55469 14.2031 5.625 14.6797L7.29688 15.0703Q8.61719 15.375 9.23438 15.7773Q9.85156 16.1797 9.85938 16.8516Q9.85156 17.5859 9.19531 18.0469Q8.53906 18.5078 7.375 18.5078Q6.09375 18.5078 5.30469 17.918Q4.51562 17.3281 4.45312 16.1719L0.75 16.1719Q0.789062 18.9766 2.59766 20.3398Q4.40625 21.7031 7.42188 21.7031Q10.4141 21.7031 12.0938 20.4219Q13.7734 19.1406 13.7812 16.8594Q13.7734 14.9453 12.5117 13.7578Q11.25 12.5703 8.88281 12.0469L7.50781 11.7344Q6.42188 11.5 5.78125 11.0977Q5.14062 10.6953 5.16406 9.98438Q5.17188 9.32812 5.73438 8.90234Q6.29688 8.47656 7.42188 8.47656Q8.55469 8.47656 9.16797 8.95703ZM50.9648 8.95703Q51.5781 9.4375 51.6562 10.2969L55.3594 10.2969Q55.3438 8.79688 54.5859 7.66797Q53.8281 6.53906 52.457 5.91016Q51.0859 5.28125 49.2266 5.28125Q47.3984 5.28125 45.9805 5.90234Q44.5625 6.52344 43.7578 7.64063Q42.9531 8.75781 42.9609 10.25Q42.9531 12.0703 44.1523 13.1367Q45.3516 14.2031 47.4219 14.6797L49.0938 15.0703Q50.4141 15.375 51.0312 15.7773Q51.6484 16.1797 51.6562 16.8516Q51.6484 17.5859 50.9922 18.0469Q50.3359 18.5078 49.1719 18.5078Q47.8906 18.5078 47.1016 17.918Q46.3125 17.3281 46.25 16.1719L42.5469 16.1719Q42.5859 18.9766 44.3945 20.3398Q46.2031 21.7031 49.2188 21.7031Q52.2109 21.7031 53.8906 20.4219Q55.5703 19.1406 55.5781 16.8594Q55.5703 14.9453 54.3086 13.7578Q53.0469 12.5703 50.6797 12.0469L49.3047 11.7344Q48.2188 11.5 47.5781 11.0977Q46.9375 10.6953 46.9609 9.98438Q46.9688 9.32812 47.5312 8.90234Q48.0938 8.47656 49.2188 8.47656Q50.3516 8.47656 50.9648 8.95703ZM16.793 20.8281Q17.9062 21.7031 19.625 21.7031Q22.1094 21.7031 23.1094 19.8281L23.2031 19.8281L23.2031 21.5L26.7969 21.5L26.7969 13.3438Q26.7969 12.0703 26.1055 11.1797Q25.4141 10.2891 24.2148 9.81641Q23.0156 9.34375 21.4844 9.34375Q19.0625 9.34375 17.707 10.4297Q16.3516 11.5156 16.125 13.1562L19.6484 13.2812Q19.7734 12.7031 20.2344 12.375Q20.6953 12.0469 21.4531 12.0469Q22.1562 12.0469 22.5703 12.375Q22.9844 12.7031 22.9844 13.3047L22.9844 13.3438Q22.9844 13.8906 22.332 14.0859Q21.6797 14.2812 20.1406 14.4141Q18.9297 14.5156 17.9141 14.8945Q16.8984 15.2734 16.2891 16.0586Q15.6797 16.8438 15.6797 18.1719Q15.6797 19.9531 16.793 20.8281ZM33.0078 21.7031Q31.2891 21.7031 30.1758 20.8281Q29.0625 19.9531 29.0625 18.1719Q29.0625 16.8438 29.6719 16.0586Q30.2812 15.2734 31.2969 14.8945Q32.3125 14.5156 33.5234 14.4141Q35.0625 14.2812 35.7148 14.0859Q36.3672 13.8906 36.3672 13.3438L36.3672 13.3047Q36.3672 12.7031 35.9531 12.375Q35.5391 12.0469 34.8359 12.0469Q34.0781 12.0469 33.6172 12.375Q33.1562 12.7031 33.0312 13.2812L29.5078 13.1562Q29.7344 11.5156 31.0898 10.4297Q32.4453 9.34375 34.8672 9.34375Q36.3984 9.34375 37.5977 9.81641Q38.7969 10.2891 39.4883 11.1797Q40.1797 12.0703 40.1797 13.3438L40.1797 21.5L36.5859 21.5L36.5859 19.8281L36.4922 19.8281Q35.4922 21.7031 33.0078 21.7031ZM22.3633 18.6562Q21.7188 19.2031 20.8047 19.2031Q20.1406 19.2031 19.7188 18.8906Q19.2969 18.5781 19.2969 17.9844Q19.2969 16.8359 20.9922 16.5781Q21.5234 16.5 22.1055 16.3828Q22.6875 16.2656 23.0078 16.0938L23.0078 17.2344Q23.0078 18.1094 22.3633 18.6562ZM34.1875 19.2031Q35.1016 19.2031 35.7461 18.6562Q36.3906 18.1094 36.3906 17.2344L36.3906 16.0938Q36.0703 16.2656 35.4883 16.3828Q34.9062 16.5 34.375 16.5781Q32.6797 16.8359 32.6797 17.9844Q32.6797 18.5781 33.1016 18.8906Q33.5234 19.2031 34.1875 19.2031Z" />
        </g>
        <g id="dunk." fill="#0080FF">
          <path d="M62.8906 21.7344Q61.4375 21.7344 60.3047 20.9922Q59.1719 20.25 58.5234 18.8555Q57.875 17.4609 57.875 15.5234Q57.875 13.5781 58.5273 12.1953Q59.1797 10.8125 60.3203 10.0781Q61.4609 9.34375 62.9062 9.34375Q64.0234 9.34375 64.707 9.71484Q65.3906 10.0859 65.7695 10.5781Q66.1484 11.0703 66.3594 11.4453L66.5 11.4453L66.5 5.5L68.8359 5.5L68.8359 21.5L66.5547 21.5L66.5547 19.6328L66.3594 19.6328Q66.1484 20.0156 65.7539 20.5078Q65.3594 21 64.6719 21.3672Q63.9844 21.7344 62.8906 21.7344ZM99.8828 21.5L99.8828 5.5L102.219 5.5L102.219 14.5781L102.422 14.5781L107.203 9.5L110 9.5L105.141 14.6484L110.328 21.5L107.461 21.5L103.383 16.0781L102.219 17.2422L102.219 21.5L99.8828 21.5ZM88.5781 21.5L88.5781 14.375Q88.5781 12.9375 89.3672 12.1523Q90.1562 11.3672 91.375 11.3672Q92.5625 11.3672 93.2422 12.1055Q93.9219 12.8438 93.9219 14.1484L93.9219 21.5L96.2578 21.5L96.2578 13.8672Q96.2578 11.6406 95.1367 10.4922Q94.0156 9.34375 92.1719 9.34375Q90.8203 9.34375 89.9336 9.92187Q89.0469 10.5 88.6328 11.4531L88.4844 11.4531L88.4844 9.5L86.2422 9.5L86.2422 21.5L88.5781 21.5ZM80.2656 16.5234L80.2656 9.5L82.6094 9.5L82.6094 21.5L80.3125 21.5L80.3125 19.4219L80.1875 19.4219Q79.7734 20.3828 78.8633 21.0195Q77.9531 21.6562 76.6016 21.6562Q74.875 21.6562 73.7695 20.5117Q72.6641 19.3672 72.6641 17.1328L72.6641 9.5L75 9.5L75 16.8516Q75 18.0781 75.6797 18.8047Q76.3594 19.5312 77.4453 19.5312Q78.1016 19.5312 78.7539 19.2031Q79.4062 18.875 79.8398 18.207Q80.2734 17.5391 80.2656 16.5234ZM63.4062 19.7422Q64.9219 19.7422 65.7305 18.5664Q66.5391 17.3906 66.5391 15.5Q66.5391 13.6172 65.7383 12.4727Q64.9375 11.3281 63.4062 11.3281Q62.3516 11.3281 61.6484 11.875Q60.9453 12.4219 60.5898 13.3633Q60.2344 14.3047 60.2344 15.5Q60.2344 16.7031 60.5938 17.6641Q60.9531 18.625 61.6602 19.1836Q62.3672 19.7422 63.4062 19.7422ZM113.062 21.1914Q113.523 21.6484 114.164 21.6484Q114.805 21.6484 115.266 21.1914Q115.727 20.7344 115.727 20.0859Q115.727 19.4453 115.266 18.9883Q114.805 18.5312 114.164 18.5312Q113.523 18.5312 113.062 18.9883Q112.602 19.4453 112.602 20.0859Q112.602 20.7344 113.062 21.1914Z" />
        </g>
      </g>
      <g id="Group-15" transform="translate(0 3)">
        <path d="M12 9.74625e-15L-1.37251e-14 15.8576L12 20.4851L24 15.8576L12 9.74625e-15Z" id="Path" fill="none" fill-rule="evenodd" stroke="#0080FF" stroke-width="2.5" />
        <path d="M11.9863 13.7395L11.9863 1.73946" id="Line-3" fill="none" fill-rule="evenodd" stroke="#0080FF" stroke-width="2.5" stroke-linecap="square" />
        <path d="M11.9863 13.7395L0.986273 15.7395" id="Line-3" fill="none" fill-rule="evenodd" stroke="#0080FF" stroke-width="2.5" stroke-linecap="square" />
        <path d="M11.9863 13.7395L22.9863 15.7395" id="Line-3" fill="none" fill-rule="evenodd" stroke="#0080FF" stroke-width="2.5" stroke-linecap="square" />
      </g>
    </g>
  </g>
</svg>